<svg xmlns="http://www.w3.org/2000/svg" width="1024" height="1024"><path fill="#fff" d="M0 0h1024v1024H0z"/><path fill="#39567f" d="M719.1 261.29c-4.94-12.78-11.54-24.92-17.71-38.08-4.52 5.63-8.23 10.11-11.78 14.72-2.29 2.98-5.07 4.63-8.6 2.79-3.47-1.81-3.05-4.99-2.18-8.31 2.32-8.84 4.56-17.7 6.53-26.63a7.3 7.3 0 0 0-1.15-5.34c-4.58-5.93-9.21-11.85-14.32-17.32-37.9-40.61-84.41-66-138.71-76.88-14.11-2.83-30.34-4.21-42.99-5.15s-19.74-1.24-33.92-.18c-34.42 2.56-67.92 9.01-100.22 21.19-63.01 23.76-113.76 62.58-147.58 121.67-23.83 41.63-32.73 86.12-24.76 133.81a185 185 0 0 1 2.53 32.76c-.26 19.57-8.68 36.77-18.04 53.4-10.86 19.29-22.31 38.25-32.99 57.63a27.4 27.4 0 0 0-3.07 14.21c.48 7.86 5.91 12.95 13.11 15.45 7.67 2.66 15.64 4.44 23.39 6.87 7.86 2.45 11.68 7.4 11.21 15.59-.29 5.07-1.91 10.08-3.08 15.08-1.94 8.29.4 13.87 7.77 18.07 1.95 1.11 3.97 2.12 5.31 2.83-1.85 4.58-3.93 8.57-5.04 12.82-1.26 4.84.11 9.68 4.26 12.53 9.54 6.54 11.1 15.7 10.59 26.31-.45 9.44-.45 19.01.63 28.38 2.13 18.52 13.12 30.26 31.27 34.48 15.62 3.64 31.44 2.65 47.24 1.57 13.28-.91 26.54-2.4 39.83-2.79 16.47-.49 25.28 5.43 30.45 21.1 3.2 9.72 5.29 19.96 6.56 30.13 4.29 34.16-.06 66.97-18.97 96.45-8.51 13.27-18.77 25.41-28.31 38.01-2.22 2.94-4.7 5.68-7.75 9.34h45.16l156.46.12-.02-377.84c0-25.21 15.39-44.74 39.85-50.42 2.71-.63 5.6-.63 8.41-.64q78.96-.04 157.93-.04c2 0 3.99-.1 5.99-.15 1.09-3.09 2.04-6.23 3.3-9.25 30.19-72.32 31.65-145.14 3.38-218.29z"/><path fill="#12264b" d="m500.26 917.91-.02-377.84c0-25.21 15.39-44.74 39.85-50.42 2.71-.63 5.6-.63 8.41-.64q78.96-.04 157.93-.04c2 0 3.99-.1 5.99-.15 41.16 0 82.33-.13 123.49.06 26.25.12 47.39 21.74 47.63 48.56.25 29 .19 58 .26 86.99v4.49c3.33-5.25 5.96-9.31 8.51-13.42 5.56-8.95 16.02-11.63 25.12-6.22 4.86 2.89 9.6 6 14.28 9.18 6.4 4.36 9.13 13.49 5.5 20.44-4.06 7.77-8.88 15.13-13.54 22.95-7.44-4.87-14.39-9.39-21.31-13.95-6.82-4.49-13.6-9.02-20.9-13.86l-6.55 7.04 43.39 28.58.54-1.49c2.22.51 4.92.4 6.58 1.66 4.28 3.25 8.81 6.59 11.92 10.85 3.09 4.22 2.37 9.52-.54 14.12-13.49 21.39-26.97 42.79-40.53 64.14-2.32 3.66-6.8 4.63-9.94 2.26-3.52-2.66-3.01-5.97-.95-9.28q17.43-27.96 34.94-55.87c6.68-10.64 6.73-10.61-4.89-17.04l-22.86 36.76c-30.02 48.17-60.07 96.32-90.02 144.53-1.93 3.11-3.4 4.26-6.95 1.85-12.96-8.79-26.13-17.26-39.2-25.88-1.08-.71-2.04-1.61-3.2-2.53 13.14-20.95 26.16-41.64 39.12-62.37 22.16-35.46 44.35-70.89 66.3-106.48a22.4 22.4 0 0 0 3.16-11.09c.23-37.66.15-75.33.14-113 0-18.68-11.26-29.62-29.98-29.6-93.5.09-186.99.09-280.49.14-18.28 0-29.17 10.91-29.17 29.21 0 124.33.2 248.66-.17 372.99-.06 18.85 14.45 29.77 30.02 29.68 93.83-.5 187.66-.27 281.49-.29 16.86 0 28.27-11.33 28.29-28.1.03-39-.06-78 .17-117 .02-3.54 1.55-7.28 3.15-10.54a56 56 0 0 1 7.54-11.72c1.38-1.61 4.48-2.6 6.69-2.44 2.69.2 4.34 2.27 4.33 5.63-.13 46.5.12 93-.26 139.49-.22 26.95-21.95 47.13-49.91 47.16-67.83.06-135.66.02-203.49.02-25.83 0-51.68-.6-77.49.15-28.8.84-50.78-19.79-52.36-47.69z"/><path fill="#fb6565" d="m794.61 183.44 27.04 10.63c5.95 2.34 5.96 3 1 7.34-22.71 19.84-45.36 39.73-68.05 59.59a10 10 0 0 1-4.87 2.49c8.95-19.55 20.36-37.6 31.5-56.82-6.11-2.56-11.74-5.28-17.6-7.32-13.49-4.69-11.51-5.14-3.38-14.02 18.56-20.27 37-40.65 55.57-60.91 1.08-1.17 2.85-1.71 4.3-2.54-.1 1.78.31 3.79-.37 5.31-7.5 16.9-15.17 33.72-22.78 50.57-.74 1.64-1.38 3.32-2.36 5.68m-106.01 41 17.99-59.95c-7.96-1.51-15.4-2.94-22.85-4.31-4.72-.87-5.49-2.1-3.27-6.23a18530 18530 0 0 1 40.99-75.99c.68-1.26 2.21-2.07 3.34-3.09.19 1.46.79 3 .52 4.37a3883 3883 0 0 1-11.54 56.59c-.79 3.71.1 5.07 3.73 5.69 7.02 1.2 13.97 2.84 20.98 4.17 3.85.73 4.93 2.52 2.64 5.86q-24.58 35.83-49.13 71.67c-.55.8-.75 1.84-1.11 2.77l-2.28-1.57z"/><path fill="#708aac" d="M716.2 604.11h-84.98c-6.12 0-9.6-2.74-9.63-7.59-.04-5.01 3.71-8.35 9.75-8.35q85.48-.06 170.96-.03c5.66 0 9.44 3.37 9.42 8.13-.01 4.91-3.48 7.82-9.54 7.82H716.2zm.32 83.84h-84.93c-6.16 0-9.88-3-10-7.99-.11-4.96 3.57-8 9.85-8q85.18-.02 170.36 0c6 0 9.96 3.3 9.88 8.13-.07 4.58-3.99 7.8-9.74 7.81q-42.72.03-85.43.01zm-22.83 83.18h-62.46c-6.3 0-9.58-2.55-9.7-7.46-.12-5.11 3.46-8.41 9.58-8.41q62.95-.08 125.91-.02c6.09 0 9.82 3.35 9.71 8.31-.12 5.06-3.19 7.58-9.59 7.59-21.15.04-42.3.01-63.45.01z"/><path fill="#fb6565" d="m810.79 289.97-7.05-18.41c-1.32-3.43-.28-5.12 3.51-4.95q29.4 1.35 58.81 2.74c.9.04 1.77.57 2.65.87l.31 1.46-42.46 13.17c2.88 6.21 5.53 11.87 8.11 17.55 2.1 4.63 1.39 5.94-3.42 5.8-20.61-.6-41.22-1.3-61.82-1.99-.91-.03-1.8-.41-2.7-.63l-.36-1.55z"/><path fill="#12264b" d="M792.7 870.72c-5.73 3.7-10.45 6.72-15.14 9.78-7.65 4.99-15.14 10.25-23.01 14.87-2.18 1.28-5.73 1.57-8.14.77-3.34-1.1-2.99-4.43-2.48-7.65 2.34-14.88 4.43-29.79 6.75-45.63z"/><path fill="#708aac" d="M666.21 854.32h-35.5c-5.65-.01-9.11-2.92-9.16-7.59-.05-4.74 3.35-7.93 8.88-7.95q36.22-.08 72.44 0c5.66.01 8.84 2.96 8.94 7.85.1 4.62-3.38 7.62-9.1 7.64-12.17.05-24.33.02-36.5.02z"/><path fill="#12264b" d="M565.34 679.62c0-8.23 6.61-14.89 14.85-14.97 8.05-.08 14.85 6.72 14.92 14.91.07 8.07-6.82 15.05-14.83 15.02a15.15 15.15 0 0 1-14.94-14.96m29.84 167.17c-.1 7.91-6.86 14.55-14.84 14.56-8.16.01-15.06-6.86-15-14.95s7.05-14.95 15.14-14.86c8.11.09 14.81 7.04 14.7 15.25m-.13-83.77c.03 8.19-6.79 15.11-14.8 15-8.08-.11-14.99-7.12-14.86-15.08.13-8.04 7.15-14.86 15.19-14.78 7.84.08 14.43 6.85 14.47 14.85zm-29.69-166.61c-.12-8.12 6.61-15.04 14.79-15.21 7.93-.17 14.97 6.87 14.97 14.98 0 7.9-6.63 14.49-14.73 14.63-7.83.13-14.92-6.66-15.03-14.4M254.79 465.1c-10.14.37-20.86-3.34-31.06-8.89-4.28-2.32-5.83-6.99-3.68-10.45 2.59-4.18 5.64-4.68 10.7-1.95 16.79 9.05 33.83 9.07 51.12 1.45 2.06-.91 4.75-2.4 6.41-1.75 2.3.91 5.17 3.43 5.44 5.56.29 2.3-1.48 6.03-3.49 7.25-10.28 6.25-21.7 8.87-35.42 8.77z"/><path fill="#886f89" d="M682.23 328.65c.71 85.4-70.09 159.86-157.32 160.04-88.3.17-159.66-73.44-158.47-161.86 1.15-85.09 70.61-159.04 159.12-158.54 85 .49 156.82 72.92 156.67 160.36"/><path fill="#d78d96" d="M640.25 329.2c-.18 63.52-51.33 116.08-115.13 116.44-66.3.37-117.48-54.28-116.1-119.15 1.27-59.51 48-115.02 115.39-115.09 65.6-.06 116.03 54.39 115.84 117.8"/><path fill="#fca7a7" d="M524.89 248.01c42.07-.69 79.15 36.42 79.56 79.32.44 45.08-36.35 81.35-79.17 81.81-44.79.48-80.34-37.08-80.36-80.34-.02-42.05 33.93-81.42 79.97-80.78z"/><path fill="#fb6565" d="M524.1 279.95c27.86.11 48.9 21.96 48.84 48.79-.06 26.34-21.4 48.55-48.78 48.33-26.8-.21-48.02-20.18-48.5-47.5-.5-28.37 21.55-49.68 48.44-49.62"/></svg>
